/* XPM */
static char * start_lauds_xpm[] = {
"48 20 7 1",
" 	c None",
".	c #1A1D21",
"+	c #E0DCD4",
"@	c #F5F4F2",
"#	c #9A9791",
"$	c #5F5C58",
"%	c #2D2A27",
"                                                ",
"                                                ",
"                                                ",
"                                                ",
"                   ... .... ... .... ....       ",
"                  .+@@.+@@@.+@@.+@@@.+@@@.      ",
"     ..           .+@@.+@@@.+@@.+@@@.+@@@.      ",
"    .+@.          ..@@.+@@@.+@@.+@@@.+@@@.    ..",
"    .+@. ............@+@@@@+@@@.+@@@++@@@.   .##",
"    .+@..@@@@@.+@@@@@.@@@@@@@@@.+@.....@@.   .##",
"    .+@.+@@+++.+@..@@.@@@.@@@@..+@.###.@@.  .###",
"    .+@.+@@....+@++++.@@..@@@+..+.####......####",
"    .+@.+@@@@@.+@@@@@.++..++++...$###$#$$$$$$###",
"    .++..+++++..++++..... .....$$$$#$$$#$$$$#$##",
"     ..  ..... .....        ..$$$$$$$$$$$$$$$$##",
"                         ...$$$$$$$$$$$$$$$$$###",
"            .............$$$$$$$$$$$$$%$$%$$%###",
"           ..%%%%%%%%%%%%%$%%$%%$%%$%%$%%$%%$%%#",
"       ....%%%%%%%%%%%%%%$%%%%%%%%%%%%%%%%%$%%$%",
"      .%%%%%%%%%%%%%%%%%%%%%%%%%%%%%%%%%%%%%%%%%"};
