/* XPM */
static char * minimize_xpm[] = {
"16 16 2 1",
" 	c None",
".	c #8B7E52",
"                ",
"                ",
"                ",
"                ",
"                ",
"                ",
"                ",
"                ",
"                ",
"                ",
"                ",
"                ",
"                ",
"  ............  ",
"                ",
"                "};
